<?xml version="1.0" standalone="no"?>
<!DOCTYPE svg PUBLIC "-//W3C//DTD SVG 20010904//EN"
 "http://www.w3.org/TR/2001/REC-SVG-20010904/DTD/svg10.dtd">
<svg version="1.0" xmlns="http://www.w3.org/2000/svg"
 width="640.000000pt" height="640.000000pt" viewBox="0 0 640.000000 640.000000"
 preserveAspectRatio="xMidYMid meet">
<metadata>
Created by potrace 1.14, written by Peter Selinger 2001-2017
</metadata>
<g transform="translate(0.000000,640.000000) scale(0.100000,-0.100000)"
fill="#000000" stroke="none">
<path d="M220 3200 l0 -3200 2980 0 2980 0 0 3200 0 3200 -2980 0 -2980 0 0
-3200z m3160 2668 c52 -31 194 -113 315 -183 121 -71 245 -143 275 -160 30
-18 125 -72 210 -122 85 -49 274 -158 420 -243 146 -84 274 -159 285 -167 23
-17 32 -18 -135 22 -115 27 -1144 259 -1360 307 -74 16 -139 33 -143 38 -5 4
-1 126 7 271 9 145 16 272 16 282 0 10 3 16 8 14 4 -3 50 -29 102 -59z m-374
-276 c-7 -128 -16 -236 -19 -239 -6 -5 -242 -54 -1076 -224 -271 -55 -495 -98
-497 -96 -2 2 216 120 484 262 268 142 629 334 802 427 l315 167 3 -32 c2 -18
-4 -137 -12 -265z m-140 -544 c-12 -20 -339 -603 -816 -1453 -89 -159 -188
-335 -219 -390 -31 -55 -135 -240 -231 -412 -96 -171 -176 -310 -177 -309 -2
1 -44 139 -129 416 -20 63 -46 149 -59 190 -114 368 -379 1229 -415 1350 -16
52 -36 115 -44 139 -20 54 -20 65 -1 57 8 -3 15 -1 15 5 0 6 9 8 20 4 12 -4
20 -2 20 5 0 7 8 9 20 5 12 -4 20 -2 20 5 0 6 4 9 8 6 5 -3 33 2 63 10 30 8
70 17 89 20 19 3 51 9 70 14 37 10 95 22 975 201 297 61 590 121 650 134 61
12 120 23 133 24 21 1 21 -1 8 -21z m678 -13 c83 -19 331 -75 551 -125 220
-49 470 -106 555 -125 85 -19 225 -51 310 -70 445 -101 534 -122 537 -131 2
-5 -24 -99 -58 -209 -33 -110 -76 -249 -94 -310 -18 -60 -74 -245 -125 -410
-50 -165 -107 -349 -125 -410 -18 -60 -63 -209 -100 -330 -37 -121 -78 -258
-92 -305 -14 -47 -29 -89 -32 -93 -4 -4 -196 315 -426 710 -230 395 -437 750
-460 788 -23 39 -76 129 -117 200 -41 72 -98 168 -125 215 -28 47 -75 128
-105 180 -30 52 -95 163 -143 245 -129 222 -126 215 -113 215 6 0 79 -16 162
-35z m-289 -255 c43 -74 93 -160 111 -190 27 -46 133 -227 222 -380 11 -19 59
-102 108 -185 48 -82 102 -175 119 -205 17 -30 223 -384 458 -787 235 -402
430 -738 433 -747 6 -15 -130 -16 -1551 -16 -1526 0 -1557 0 -1552 19 2 11
140 259 305 553 165 293 393 700 507 903 114 204 226 404 250 445 24 41 127
226 230 410 103 184 197 350 208 368 l20 34 27 -44 c15 -23 62 -104 105 -178z
m-2429 -1196 c52 -170 133 -430 179 -579 104 -335 225 -733 225 -739 0 -2 -37
-26 -82 -53 -213 -128 -454 -276 -467 -287 -12 -9 -13 20 -7 199 9 282 46
1667 46 1729 0 27 3 47 6 44 3 -3 48 -145 100 -314z m4739 -499 c8 -236 22
-592 30 -790 8 -197 13 -360 12 -361 -5 -4 -552 297 -555 306 -2 5 27 107 63
227 37 120 82 268 100 328 39 129 99 327 224 738 50 164 92 302 93 305 2 11
15 -278 33 -753z m-977 -1082 c-13 -16 -175 -192 -359 -393 -184 -200 -487
-531 -674 -734 -187 -203 -353 -385 -370 -403 l-30 -33 -150 158 c-306 322
-897 944 -1105 1162 -118 124 -224 235 -234 248 l-19 22 1483 0 1484 0 -26
-27z m-3222 -35 c53 -59 701 -741 941 -992 84 -88 151 -161 149 -163 -1 -2
-77 39 -167 90 -175 100 -223 127 -971 548 -269 150 -488 276 -488 279 0 3 44
31 98 63 53 32 158 95 232 141 74 47 140 85 146 85 6 1 33 -23 60 -51z m3837
-96 c136 -74 249 -137 252 -142 3 -4 -93 -62 -213 -128 -119 -66 -359 -200
-532 -297 -569 -320 -804 -452 -840 -470 l-35 -17 31 33 c17 19 111 122 210
229 99 107 278 303 399 435 351 385 457 496 470 493 6 -2 122 -63 258 -136z"/>
</g>
</svg>
